# File created by Blade
# Date/Time:  Tue Sep 28 14:35:47 2010
#---------------------------------------------------------
:version 1.10
:name HOM
:units
  mass 1.0
  length 1.000000
  angle deg
:documentation
     Acclaim Skeleton File
:root
   axis xyz
   order TX TY TZ RX RY RZ
   position 0.000000 0.000000 0.000000
   orientation 0 0 0
:bonedata
   begin
      id 1
      name LeftUpLeg_dum
      direction 1.000000 0.000000 0.000000
      length 3.677894
      axis 0.0 0.0 0.0 xyz
   end
   begin
      id 2
      name RightUpLeg_dum
      direction -1.000000 0.000000 0.000000
      length 3.677894
      axis 0.0 0.0 0.0 xyz
   end
   begin
      id 3
      name Spine_dum
      direction 0.000000 1.000000 0.000000
      length 0.039370
      axis 0.0 0.0 0.0 xyz
   end
   begin
      id 4
      name LeftUpLeg
      direction 0.000000 -1.000000 0.000000
      length 18.389491
      axis 0.0 0.0 0.0 xyz
      dof rx ry rz
   end
   begin
      id 5
      name LeftLeg
      direction 0.000000 -1.000000 0.000000
      length 16.918313
      axis 0.0 0.0 0.0 xyz
      dof rx ry rz
   end
   begin
      id 6
      name LeftFoot
      direction 0.000000 -0.258819 0.965926
      length 6.436326
      axis 15.0 0.0 0.0 xyz
      dof rx ry rz
   end
   begin
      id 7
      name LeftToeBase
      direction 0.000000 0.000000 1.000000
      length 2.952750
      axis 0.0 0.0 0.0 xyz
      dof rx ry rz
   end
   begin
      id 8
      name RightUpLeg
      direction 0.000000 -1.000000 0.000000
      length 18.389491
      axis 0.0 0.0 0.0 xyz
      dof rx ry rz
   end
   begin
      id 9
      name RightLeg
      direction 0.000000 -1.000000 0.000000
      length 16.918313
      axis 0.0 0.0 0.0 xyz
      dof rx ry rz
   end
   begin
      id 10
      name RightFoot
      direction 0.000000 -0.258819 0.965926
      length 6.436326
      axis 15.0 0.0 0.0 xyz
      dof rx ry rz
   end
   begin
      id 11
      name RightToeBase
      direction 0.000000 0.000000 1.000000
      length 2.952750
      axis 0.0 0.0 0.0 xyz
      dof rx ry rz
   end
   begin
      id 12
      name Spine
      direction 0.000000 1.000000 0.000000
      length 9.194745
      axis 0.0 0.0 0.0 xyz
      dof rx ry rz
   end
   begin
      id 13
      name Spine1
      direction 0.000000 1.000000 0.000000
      length 0.000000
      axis 0.0 0.0 0.0 xyz
      dof rx ry rz
   end
   begin
      id 14
      name Spine1_dum1
      direction 0.000000 1.000000 0.000000
      length 9.194745
      axis 0.0 0.0 0.0 xyz
   end
   begin
      id 15
      name Spine1_dum2
      direction 0.000000 1.000000 0.000000
      length 9.194745
      axis 0.0 0.0 0.0 xyz
   end
   begin
      id 16
      name Spine1_dum3
      direction 0.000000 1.000000 0.000000
      length 9.194745
      axis 0.0 0.0 0.0 xyz
   end
   begin
      id 17
      name Neck
      direction 0.000000 1.000000 0.000000
      length 4.229598
      axis 0.0 0.0 0.0 xyz
      dof rx ry rz
   end
   begin
      id 18
      name Head
      direction 0.000000 1.000000 0.000000
      length 4.527550
      axis 0.0 0.0 0.0 xyz
      dof rx ry rz
   end
   begin
      id 19
      name LeftShoulder
      direction 1.000000 -0.000004 0.000000
      length 5.516839
      axis 0.0 0.0 -90.0 xyz
      dof rx ry rz
   end
   begin
      id 20
      name LeftArm
      direction 1.000000 -0.000004 0.000000
      length 11.033679
      axis 0.0 0.0 -90.0 xyz
      dof rx ry rz
   end
   begin
      id 21
      name LeftForeArm
      direction 1.000000 -0.000004 0.000000
      length 10.114232
      axis 0.0 0.0 -90.0 xyz
      dof rx ry rz
   end
   begin
      id 22
      name LeftHand
      direction 0.000000 0.000000 0.000000
      length 0.000000
      axis 0.0 0.0 -90.0 xyz
      dof rx ry rz
   end
   begin
      id 23
      name LeftHand_dum1
      direction 0.000000 0.000000 0.000000
      length 0.000000
      axis 0.0 0.0 -90.0 xyz
   end
   begin
      id 24
      name LeftHand_dum2
      direction 1.000000 -0.000004 0.000000
      length 3.937000
      axis 0.0 0.0 -90.0 xyz
   end
   begin
      id 25
      name LeftHandThumb
      direction 0.000000 0.000000 1.000000
      length 3.937000
      axis 0.0 0.0 -90.0 xyz
      dof rx ry rz
   end
   begin
      id 26
      name RightShoulder
      direction -1.000000 -0.000004 0.000000
      length 5.516839
      axis 0.0 0.0 90.0 xyz
      dof rx ry rz
   end
   begin
      id 27
      name RightArm
      direction -1.000000 -0.000004 0.000000
      length 11.033679
      axis 0.0 0.0 90.0 xyz
      dof rx ry rz
   end
   begin
      id 28
      name RightForeArm
      direction -1.000000 -0.000004 0.000000
      length 10.114232
      axis 0.0 0.0 90.0 xyz
      dof rx ry rz
   end
   begin
      id 29
      name RightHand
      direction 0.000000 0.000000 0.000000
      length 0.000000
      axis 0.0 0.0 90.0 xyz
      dof rx ry rz
   end
   begin
      id 30
      name RightHand_dum1
      direction 0.000000 0.000000 0.000000
      length 0.000000
      axis 0.0 0.0 90.0 xyz
   end
   begin
      id 31
      name RightHand_dum2
      direction -1.000000 -0.000004 0.000000
      length 5.393690
      axis 0.0 0.0 90.0 xyz
   end
   begin
      id 32
      name RightHandThumb
      direction 0.000000 0.000000 1.000000
      length 3.937000
      axis 0.0 0.0 90.0 xyz
      dof rx ry rz
   end
:hierarchy
   begin
      root LeftUpLeg_dum RightUpLeg_dum Spine_dum
      LeftUpLeg_dum LeftUpLeg
      RightUpLeg_dum RightUpLeg
      Spine_dum Spine
      LeftUpLeg LeftLeg
      LeftLeg LeftFoot
      LeftFoot LeftToeBase
      RightUpLeg RightLeg
      RightLeg RightFoot
      RightFoot RightToeBase
      Spine Spine1
      Spine1 Spine1_dum1 Spine1_dum2 Spine1_dum3
      Spine1_dum1 Neck
      Spine1_dum2 LeftShoulder
      Spine1_dum3 RightShoulder
      Neck Head
      LeftShoulder LeftArm
      LeftArm LeftForeArm
      LeftForeArm LeftHand
      LeftHand LeftHand_dum1 LeftHand_dum2
      LeftHand_dum1 LeftHandThumb
      RightShoulder RightArm
      RightArm RightForeArm
      RightForeArm RightHand
      RightHand RightHand_dum1 RightHand_dum2
      RightHand_dum1 RightHandThumb
   end

# File created by Blade
# Date/Time:  Tue Sep 28 14:35:42 2010
# Frame Rate: 200.000 fps
#------------------------------------------------------
:FULLY-SPECIFIED
:DEGREES
1243
root  3.076936 38.516300 98.460478 6.524323 -1.733366 -2.595862
LeftUpLeg  -7.723281 2.779789 0.900798
LeftLeg  11.530617 -0.000000 0.000000
LeftFoot  3.400910 17.646423 4.428270
LeftToeBase  -8.686257 0.000000 -0.000000
RightUpLeg  -10.283539 -33.894201 6.041276
RightLeg  14.499225 -0.000000 0.000000
RightFoot  -0.068357 13.873863 -18.536286
RightToeBase  -8.735202 0.000000 -0.000000
Spine  -12.484312 -2.024151 0.550084
Spine1  6.970538 -1.123470 2.129831
Neck  20.993941 5.047982 -7.756532
Head  -14.338892 4.294409 0.920973
LeftShoulder  -14.953189 -4.666073 -4.343329
LeftArm  -4.183588 -36.677766 3.889667
LeftForeArm  10.006429 -0.000000 0.000000
LeftHand  3.749337 38.940044 5.293844
LeftHandThumb  0.000000 -0.000000 0.000000
RightShoulder  -2.461100 -0.298314 2.510428
RightArm  -2.061756 7.632943 -3.651015
RightForeArm  -0.560565 0.000000 -0.000000
RightHand  -4.796115 -9.449432 -8.318781
RightHandThumb  0.000000 -0.000000 0.000000
1244
root  3.073228 38.513184 98.482210 6.511566 -1.653228 -2.602347
LeftUpLeg  -7.679587 2.762727 0.919907
LeftLeg  11.533896 -0.000000 0.000000
LeftFoot  3.287234 17.617867 4.413177
LeftToeBase  -8.084119 0.000000 -0.000000
RightUpLeg  -10.470933 -34.993400 6.145229
RightLeg  14.888157 -0.000000 0.000000
RightFoot  -0.545171 14.551203 -19.251329
RightToeBase  -8.664601 0.000000 -0.000000
Spine  -12.498220 -2.038845 0.559500
Spine1  6.985799 -1.139645 2.129972
Neck  21.044768 5.122474 -7.764985
Head  -14.387470 4.188453 1.013967
LeftShoulder  -14.935657 -4.602697 -4.383410
LeftArm  -4.161265 -36.723002 3.884196
LeftForeArm  9.996794 -0.000000 0.000000
LeftHand  3.691273 38.842479 5.188962
LeftHandThumb  0.000000 -0.000000 0.000000
RightShoulder  -2.486871 -0.464164 2.536171
RightArm  -2.137437 7.549577 -3.692713
RightForeArm  -0.457538 0.000000 -0.000000
RightHand  -4.886134 -9.319328 -8.307617
RightHandThumb  0.000000 -0.000000 0.000000
1245
root  3.081743 38.511672 98.500973 6.503110 -1.686557 -2.612213
LeftUpLeg  -7.622430 2.706641 0.918372
LeftLeg  11.521438 -0.000000 0.000000
LeftFoot  3.280113 17.784184 4.273037
LeftToeBase  -8.319670 0.000000 -0.000000
RightUpLeg  -10.685757 -35.917103 6.217234
RightLeg  15.304802 -0.000000 0.000000
RightFoot  -0.999557 15.188049 -19.947055
RightToeBase  -8.655196 0.000000 -0.000000
Spine  -12.517048 -2.020683 0.596220
Spine1  7.017959 -1.133037 2.128021
Neck  21.004973 5.608964 -7.980976
Head  -14.367520 3.623159 1.643892
LeftShoulder  -14.947078 -4.573765 -4.440535
LeftArm  -4.210458 -36.847390 3.943836
LeftForeArm  9.982889 -0.000000 0.000000
LeftHand  3.756682 38.981260 4.942710
LeftHandThumb  0.000000 -0.000000 0.000000
RightShoulder  -2.450800 -0.261418 2.520413
RightArm  -2.094256 7.705377 -3.740475
RightForeArm  -0.544304 0.000000 -0.000000
RightHand  -4.698992 -9.737528 -8.376776
RightHandThumb  0.000000 -0.000000 0.000000
1246
root  3.079142 38.509774 98.504837 6.488573 -1.689705 -2.622544
LeftUpLeg  -7.622818 2.708564 0.928589
LeftLeg  11.550679 -0.000000 0.000000
LeftFoot  3.275639 17.741962 4.393798
LeftToeBase  -8.536712 0.000000 -0.000000
RightUpLeg  -10.886557 -36.628532 6.300608
RightLeg  15.679035 -0.000000 0.000000
RightFoot  -1.348796 15.637050 -20.476759
RightToeBase  -8.540555 0.000000 -0.000000
Spine  -12.483367 -2.017993 0.609739
Spine1  7.024253 -1.133988 2.124383
Neck  21.035724 5.398555 -7.965437
Head  -14.434215 3.702280 1.503730
LeftShoulder  -14.953944 -4.358155 -4.513696
LeftArm  -4.215637 -37.139647 3.930078
LeftForeArm  9.979132 -0.000000 0.000000
LeftHand  3.664470 39.131713 4.841355
LeftHandThumb  0.000000 -0.000000 0.000000
RightShoulder  -2.455075 -0.252811 2.527872
RightArm  -2.099458 7.483036 -3.760887
RightForeArm  -0.420200 0.000000 -0.000000
RightHand  -4.857144 -9.644655 -8.282428
RightHandThumb  0.000000 -0.000000 0.000000
1247
root  3.081664 38.504971 98.519139 6.484162 -1.674483 -2.630574
LeftUpLeg  -7.598005 2.687337 0.932573
LeftLeg  11.551056 -0.000000 0.000000
LeftFoot  3.193068 17.676515 4.431639
LeftToeBase  -8.642035 0.000000 -0.000000
RightUpLeg  -11.074495 -37.463090 6.373583
RightLeg  16.066974 -0.000000 0.000000
RightFoot  -1.796639 16.223363 -21.149406
RightToeBase  -8.252313 0.000000 -0.000000
Spine  -12.480887 -1.998120 0.630433
Spine1  6.946641 -1.118304 2.129918
Neck  20.786663 5.576616 -7.968249
Head  -13.820281 3.475691 1.806232
LeftShoulder  -14.941695 -4.487486 -4.514704
LeftArm  -4.203614 -37.090776 3.946953
LeftForeArm  10.119353 -0.000000 0.000000
LeftHand  3.461707 39.220033 4.447290
LeftHandThumb  0.000000 -0.000000 0.000000
RightShoulder  -2.430734 -0.567266 2.522112
RightArm  -2.095759 7.552222 -3.788530
RightForeArm  -0.540845 0.000000 -0.000000
RightHand  -4.911863 -9.583374 -8.170135
RightHandThumb  0.000000 -0.000000 0.000000
1248
root  3.080828 38.501361 98.526723 6.477455 -1.681206 -2.642529
LeftUpLeg  -7.584293 2.666786 0.939112
LeftLeg  11.528106 -0.000000 0.000000
LeftFoot  3.132352 17.768550 4.123955
LeftToeBase  -8.812674 0.000000 -0.000000
RightUpLeg  -11.283815 -38.267716 6.467546
RightLeg  16.417663 -0.000000 0.000000
RightFoot  -2.107803 16.781009 -21.675387
RightToeBase  -8.385799 0.000000 -0.000000
Spine  -12.449736 -2.004247 0.641277
Spine1  6.980146 -1.127791 2.118074
Neck  20.948515 5.388061 -8.012984
Head  -14.346413 3.541731 1.768328
LeftShoulder  -14.939956 -4.208028 -4.584421
LeftArm  -4.219418 -37.325833 3.957250
LeftForeArm  9.876477 -0.000000 0.000000
LeftHand  3.920800 39.024744 4.705882
LeftHandThumb  0.000000 -0.000000 0.000000
RightShoulder  -2.434458 -0.561161 2.541057
RightArm  -2.098264 7.897525 -3.789778
RightForeArm  -0.415403 0.000000 -0.000000
RightHand  -4.919197 -9.902440 -8.318683
RightHandThumb  0.000000 -0.000000 0.000000
1249
root  3.085584 38.500595 98.540910 6.474337 -1.670217 -2.645636
LeftUpLeg  -7.578216 2.569913 0.941534
LeftLeg  11.591928 -0.000000 0.000000
LeftFoot  3.239827 17.825981 4.545288
LeftToeBase  -8.789551 0.000000 -0.000000
RightUpLeg  -11.471029 -39.141807 6.538058
RightLeg  16.716492 -0.000000 0.000000
RightFoot  -2.470798 17.296770 -22.076634
RightToeBase  -8.568328 0.000000 -0.000000
Spine  -12.432407 -1.985968 0.661827
Spine1  6.951516 -1.114963 2.112121
Neck  21.121861 4.964363 -7.853605
Head  -14.382704 4.067041 1.229395
LeftShoulder  -14.956303 -4.312521 -4.619738
LeftArm  -4.169234 -37.280252 3.937464
LeftForeArm  9.951323 -0.000000 0.000000
LeftHand  3.936758 39.370228 4.726543
LeftHandThumb  0.000000 -0.000000 0.000000
RightShoulder  -2.438432 -0.477824 2.524825
RightArm  -2.126313 7.746027 -3.813831
RightForeArm  -0.415238 0.000000 -0.000000
RightHand  -4.754521 -9.731600 -8.252377
RightHandThumb  0.000000 -0.000000 0.000000
